<svg width="55" height="54" viewBox="0 0 55 54" fill="none" xmlns="http://www.w3.org/2000/svg">
<path d="M54.6665 49.3606C54.49 49.9274 54.3886 50.5323 54.1244 51.0537C52.4609 54.3385 48.3835 54.9984 45.7604 52.4148C43.8306 50.5144 41.9135 48.6012 40.0185 46.6659C38.3867 44.9981 37.9587 43.0533 38.8084 40.8504C38.8613 40.714 38.8803 40.4718 38.801 40.3904C37.7135 39.2704 36.607 38.1695 35.4846 37.0442C30.0778 41.4543 23.9744 43.0459 17.1989 41.6203C12.0478 40.5363 7.869 37.7718 4.75445 33.5257C-1.56977 24.9013 -0.48649 12.8653 7.50228 5.4962C15.1634 -1.57147 27.1999 -1.84749 35.1718 4.81619C38.075 7.24329 40.2014 10.2341 41.5024 13.8044C42.8076 17.3895 43.1056 21.055 42.4419 24.8062C41.7814 28.5436 40.1813 31.8389 37.7326 34.7546C37.8224 34.8688 37.8879 34.9693 37.9703 35.0529C38.95 36.0385 39.9245 37.0284 40.9221 37.995C41.0468 38.1155 41.3333 38.1991 41.4844 38.142C43.7281 37.2854 45.6917 37.72 47.3848 39.3962C49.2713 41.265 51.1324 43.1601 53.0221 45.0256C53.9479 45.9394 54.4319 47.054 54.6655 48.3051C54.6665 48.6562 54.6665 49.0084 54.6665 49.3606ZM36.0088 21.0434C36.068 20.9471 36.1113 20.871 36.1589 20.797C37.9016 18.0864 36.2054 14.6282 33.001 14.4199C31.793 14.3416 30.5766 14.3691 29.3644 14.3934C28.4058 14.4125 27.7812 15.0523 27.778 16.0062C27.7654 19.365 27.7654 22.7249 27.778 26.0837C27.7823 27.0503 28.446 27.6996 29.413 27.7145C30.5206 27.7314 31.6282 27.7451 32.7347 27.7113C34.3263 27.6616 35.5808 26.9795 36.347 25.5517C37.1745 24.0077 36.9928 22.5081 36.0088 21.0434ZM16.661 21.0159C16.6959 21.019 16.7318 21.0222 16.7667 21.0254C16.7667 21.6938 16.7593 22.3621 16.7677 23.0305C16.7941 24.9384 17.6238 26.3629 19.3295 27.2481C21.9949 28.6324 25.5132 26.7997 25.7563 23.8057C25.9042 21.992 25.8789 20.1497 25.7626 18.3318C25.6347 16.3235 23.8634 14.6219 21.9336 14.4315C19.6307 14.2041 17.5783 15.4214 17.0351 17.5259C16.7455 18.6469 16.7751 19.8494 16.661 21.0159ZM11.6356 17.5069C11.6504 17.7797 11.6673 17.9511 11.6673 18.1224C11.6695 19.8092 11.6695 21.4971 11.6684 23.1839C11.6673 24.0616 11.3672 24.5058 10.7595 24.5418C10.193 24.5746 9.87069 24.1981 9.7259 23.334C9.60119 22.5906 8.9787 22.0428 8.23151 22.0184C7.46951 21.9941 6.80898 22.4721 6.65573 23.2198C6.59444 23.5191 6.62403 23.8459 6.65785 24.1558C6.87239 26.1546 8.73351 27.7599 10.769 27.7145C12.8658 27.6679 14.7153 26.0266 14.7766 23.9929C14.858 21.3067 14.8305 18.6163 14.8147 15.928C14.8094 15.0185 14.1858 14.4188 13.2716 14.3945C12.1313 14.3649 10.9888 14.3829 9.84744 14.3924C9.65932 14.3945 9.46168 14.4357 9.28413 14.5024C8.63417 14.7488 8.22833 15.4098 8.29175 16.0824C8.36256 16.8301 8.87724 17.4255 9.62338 17.4942C10.2691 17.5545 10.9212 17.5069 11.6356 17.5069Z" fill="#2ADA66"/>
<path d="M54.6665 49.3606C54.49 49.9274 54.3886 50.5323 54.1244 51.0537C52.4609 54.3385 48.3835 54.9984 45.7604 52.4148C43.8306 50.5144 41.9135 48.6012 40.0185 46.6659C38.3867 44.9981 37.9587 43.0533 38.8084 40.8504C38.8613 40.714 38.8803 40.4718 38.801 40.3904C37.7135 39.2704 36.607 38.1695 35.4846 37.0442C30.0778 41.4543 23.9744 43.0459 17.1989 41.6203C12.0478 40.5363 7.869 37.7718 4.75445 33.5257C-1.56977 24.9013 -0.48649 12.8653 7.50228 5.4962C15.1634 -1.57147 27.1999 -1.84749 35.1718 4.81619C38.075 7.24329 40.2014 10.2341 41.5024 13.8044C42.8076 17.3895 43.1056 21.055 42.4419 24.8062C41.7814 28.5436 40.1813 31.8389 37.7326 34.7546C37.8224 34.8688 37.8879 34.9693 37.9703 35.0529C38.95 36.0385 39.9245 37.0284 40.9221 37.995C41.0468 38.1155 41.3333 38.1991 41.4844 38.142C43.7281 37.2854 45.6917 37.72 47.3848 39.3962C49.2713 41.265 51.1324 43.1601 53.0221 45.0256C53.9479 45.9394 54.4319 47.054 54.6655 48.3051C54.6665 48.6562 54.6665 49.0084 54.6665 49.3606ZM36.0088 21.0434C36.068 20.9471 36.1113 20.871 36.1589 20.797C37.9016 18.0864 36.2054 14.6282 33.001 14.4199C31.793 14.3416 30.5766 14.3691 29.3644 14.3934C28.4058 14.4125 27.7812 15.0523 27.778 16.0062C27.7654 19.365 27.7654 22.7249 27.778 26.0837C27.7823 27.0503 28.446 27.6996 29.413 27.7145C30.5206 27.7314 31.6282 27.7451 32.7347 27.7113C34.3263 27.6616 35.5808 26.9795 36.347 25.5517C37.1745 24.0077 36.9928 22.5081 36.0088 21.0434ZM16.661 21.0159C16.6959 21.019 16.7318 21.0222 16.7667 21.0254C16.7667 21.6938 16.7593 22.3621 16.7677 23.0305C16.7941 24.9384 17.6238 26.3629 19.3295 27.2481C21.9949 28.6324 25.5132 26.7997 25.7563 23.8057C25.9042 21.992 25.8789 20.1497 25.7626 18.3318C25.6347 16.3235 23.8634 14.6219 21.9336 14.4315C19.6307 14.2041 17.5783 15.4214 17.0351 17.5259C16.7455 18.6469 16.7751 19.8494 16.661 21.0159ZM11.6356 17.5069C11.6504 17.7797 11.6673 17.9511 11.6673 18.1224C11.6695 19.8092 11.6695 21.4971 11.6684 23.1839C11.6673 24.0616 11.3672 24.5058 10.7595 24.5418C10.193 24.5746 9.87069 24.1981 9.7259 23.334C9.60119 22.5906 8.9787 22.0428 8.23151 22.0184C7.46951 21.9941 6.80898 22.4721 6.65573 23.2198C6.59444 23.5191 6.62403 23.8459 6.65785 24.1558C6.87239 26.1546 8.73351 27.7599 10.769 27.7145C12.8658 27.6679 14.7153 26.0266 14.7766 23.9929C14.858 21.3067 14.8305 18.6163 14.8147 15.928C14.8094 15.0185 14.1858 14.4188 13.2716 14.3945C12.1313 14.3649 10.9888 14.3829 9.84744 14.3924C9.65932 14.3945 9.46168 14.4357 9.28413 14.5024C8.63417 14.7488 8.22833 15.4098 8.29175 16.0824C8.36256 16.8301 8.87724 17.4255 9.62338 17.4942C10.2691 17.5545 10.9212 17.5069 11.6356 17.5069Z" fill="black" fill-opacity="0.5"/>
</svg>
